<svg width="320" height="148" viewBox="0 0 320 148" fill="none" xmlns="http://www.w3.org/2000/svg">
<path fill-rule="evenodd" clip-rule="evenodd" d="M-110.909 214.783C-111.44 167.471 -110.44 118.734 -85.1483 78.722C-58.8574 37.1294 -19.3455 -8.38886 29.9111 -7.99741C79.8509 -7.60056 98.7078 64.7823 146.084 80.5596C192.76 96.1039 249.573 50.7382 290.071 78.6419C330.993 106.838 339.707 165.152 340.889 214.783C342.092 265.232 333.89 321.574 296.673 355.714C260.906 388.526 204.789 373.412 157.231 383.263C116.803 391.638 80.0512 414.962 39.1891 409.052C-6.65117 402.422 -53.8256 385.265 -82.1182 348.646C-110.738 311.605 -110.384 261.564 -110.909 214.783Z" fill="white"/>
</svg>
