<svg width="320" height="111" viewBox="0 0 320 111" fill="none" xmlns="http://www.w3.org/2000/svg">
<path fill-rule="evenodd" clip-rule="evenodd" d="M133.381 43.959C183.778 44.0214 216.714 -2.94846 265.78 4.10658C311.616 10.6971 344.339 45.2376 342.958 74.0933C341.58 102.877 275.6 113.933 259.232 140.922C244.116 165.847 292.762 205.359 255.255 218.708C215.885 232.72 174.061 198.242 133.381 185.715C112.889 179.404 95.7522 171.509 76.668 163.713C56.46 155.458 28.2081 152.379 18.4191 138.753C8.44369 124.868 29.0604 109.789 27.063 94.6662C22.91 63.2219 -40.0176 23.147 0.592624 3.77835C40.5309 -15.2698 82.784 43.8964 133.381 43.959Z" fill="white"/>
</svg>
