<svg width="320" height="102" viewBox="0 0 320 102" fill="none" xmlns="http://www.w3.org/2000/svg">
<path fill-rule="evenodd" clip-rule="evenodd" d="M169.526 1.19783C193.186 3.71692 207.346 20.5973 229.606 26.6932C257.754 34.4015 297.037 25.4759 316.332 41.4004C334.763 56.6104 319.539 79.5834 317.284 99.0529C315.171 117.303 321.969 138.92 303.508 152.157C284.672 165.662 247.347 154.884 224.732 165.412C198.125 177.798 198.271 213.725 166.034 216.157C135.744 218.442 116.514 191.976 98.9999 174.896C85.5558 161.785 92.8455 142.5 77.8629 130.172C57.5947 113.494 7.00833 114.977 0.573388 93.9071C-5.24544 74.8542 35.2138 64.5424 53.2644 49.6278C68.5174 37.0248 78.2707 21.3064 98.7782 12.7638C119.741 4.03164 145.024 -1.41096 169.526 1.19783Z" fill="white"/>
</svg>
