<svg width="249" height="109" viewBox="0 0 249 109" fill="none" xmlns="http://www.w3.org/2000/svg">
<path fill-rule="evenodd" clip-rule="evenodd" d="M266.69 89.1092C286.675 121.29 336.467 135.845 338.378 173.683C340.263 211.001 309.255 247.156 275.485 263.223C243.834 278.282 208.312 256.427 173.539 252.11C149.439 249.118 126.611 248.329 103.214 241.834C71.9766 233.163 33.7514 234.117 14.5902 207.989C-5.07219 181.177 -0.22429 143.366 7.23266 110.953C14.4812 79.4455 28.4682 47.1906 55.6265 29.6145C81.1756 13.0798 114.235 26.4171 144.372 22.1997C175.092 17.9009 206.259 -10.1487 233.457 4.72912C260.653 19.6054 250.342 62.7841 266.69 89.1092Z" fill="white"/>
</svg>
